<?xml version="1.0" encoding="utf-8"?><svg viewBox="0 0 80 65" xmlns="http://www.w3.org/2000/svg" xmlns:xlink="http://www.w3.org/1999/xlink"><style>:root>svg{display:none}:root>svg:target{display:block}</style><svg fill="none" viewBox="0 0 17 9" id="angle-up" xmlns="http://www.w3.org/2000/svg"><g clip-path="url(#aa)"><path fill-rule="evenodd" clip-rule="evenodd" d="m16.354 7.896-.707.707L8.5 1.457 1.354 8.603l-.707-.707L8.5.043l7.854 7.853z" fill="#fff"/></g><defs><clipPath id="aa"><path fill="#fff" d="M0 0h17v9H0z"/></clipPath></defs></svg><svg fill="none" viewBox="0 0 35 35" id="arrow-left" xmlns="http://www.w3.org/2000/svg"><g clip-path="url(#ba)"><path fill-rule="evenodd" clip-rule="evenodd" d="M34.83 18.601H5.125l14.27 14.341-1.641 1.65L.68 17.435 17.756.275l1.642 1.65L5.125 16.268H34.83v2.333z" fill="#333"/></g><defs><clipPath id="ba"><path fill="#fff" d="M0 0h35v35H0z"/></clipPath></defs></svg><svg fill="none" viewBox="0 0 35 35" id="arrow-right" xmlns="http://www.w3.org/2000/svg"><g clip-path="url(#ca)"><path fill-rule="evenodd" clip-rule="evenodd" d="M34.15 17.435 17.073 34.594l-1.642-1.65 14.27-14.34H0V16.27h29.705L15.432 1.925l1.641-1.65 17.076 17.16z" fill="#333"/></g><defs><clipPath id="ca"><path fill="#fff" d="M0 0h35v35H0z"/></clipPath></defs></svg><svg fill="none" viewBox="0 0 50 55" id="expertise--graphic" xmlns="http://www.w3.org/2000/svg"><path fill-rule="evenodd" clip-rule="evenodd" d="m45.39 16.795-1.633 1.634a19.487 19.487 0 0 0-12.8-4.812c-3.178 0-6.354.817-9.078 2.269l6.899-6.899c.545.363 1.18.545 1.816.545.907 0 1.816-.363 2.541-1.09a3.618 3.618 0 0 0 0-5.174c-.727-.727-1.634-1.09-2.54-1.09-.908 0-1.817.363-2.542 1.09-1.18 1.272-1.362 3.086-.545 4.448l-8.715 8.715-1.634-1.634-4.447 4.447 1.633 1.634-8.896 8.897a3.277 3.277 0 0 0-1.817-.544c-.907 0-1.816.362-2.54 1.089a3.618 3.618 0 0 0 0 5.175c.726.634 1.633.999 2.54.999.908 0 1.817-.363 2.542-1.09 1.18-1.18 1.361-2.996.544-4.447l6.899-6.9c-3.63 6.992-2.814 15.706 2.541 21.878l-1.634 1.725 4.54 4.447 4.448-4.447-4.448-4.448-1.544 1.544c-5.265-6.174-5.537-15.07-1.09-21.605l.727.726 4.54-4.447-.817-.727c2.905-2.088 6.446-3.178 10.077-3.178 4.267 0 8.26 1.544 11.528 4.267l-1.634 1.544 4.54 4.448 4.447-4.448-4.447-4.54v-.001zM20.97 47.66l-1.906 1.906-1.907-1.906 1.907-1.907 1.906 1.907zm8.353-43.03a1.794 1.794 0 0 1 1.271-.545c.454 0 .907.182 1.271.545.727.727.727 1.816 0 2.541a1.794 1.794 0 0 1-1.27.545c-.455 0-.908-.182-1.272-.545-.727-.635-.727-1.816 0-2.541zM4.903 34.133a1.794 1.794 0 0 1-1.272.544c-.455 0-.908-.182-1.272-.544-.362-.273-.545-.727-.545-1.272 0-.454.183-.907.545-1.271a1.787 1.787 0 0 1 1.272-.545c.454 0 .907.182 1.271.545.727.727.727 1.906 0 2.541v.002zm12.164-12.8-1.906-1.907 1.906-1.906 1.907 1.906-1.907 1.907zm28.324 1.906-1.907-1.906 1.907-1.907 1.906 1.907-1.906 1.906z" fill="#333"/></svg><svg fill="none" viewBox="0 0 50 50" id="expertise--monitor" xmlns="http://www.w3.org/2000/svg"><path fill-rule="evenodd" clip-rule="evenodd" d="M46.658 35.83V5.842H3.34V35.83h20.825v6.664h-5.832v1.666h13.329v-1.666H25.83V35.83h20.828zM5.008 7.506h39.984v26.657H5.008V7.506z" fill="#333"/></svg><svg fill="none" viewBox="0 0 50 51" id="expertise--speaker" xmlns="http://www.w3.org/2000/svg"><path fill-rule="evenodd" clip-rule="evenodd" d="M.557 19.525v11.443h4.905v9.808h1.634v-9.808H19.67l11.939 9.661V9.572l-12.015 9.953H.558zm1.636 9.807V21.16h6.538v8.172H2.193zm18.444-8.548 9.336-7.736v24.155l-9.726-7.87h-9.883v-8.172h9.818l.453-.375.002-.002zm22.283-9.772-1.175 1.176c3.825 2.994 6.298 7.642 6.298 12.865 0 5.363-2.608 10.117-6.61 13.098l1.184 1.184c4.291-3.285 7.061-8.46 7.061-14.282 0-5.681-2.64-10.746-6.756-14.04h-.001z" fill="#333"/><path fill-rule="evenodd" clip-rule="evenodd" d="M37.669 16.282 36.48 17.47c2.523 1.595 4.208 4.4 4.208 7.6 0 3.34-1.835 6.254-4.547 7.804l1.191 1.191c2.994-1.88 4.992-5.2 4.992-8.995a10.61 10.61 0 0 0-4.655-8.788h-.001z" fill="#333"/></svg><svg fill="none" viewBox="0 0 80 64" id="footer-logo" xmlns="http://www.w3.org/2000/svg"><path d="M15.347 55.286c-2.544 0-4.836-.552-6.876-1.656-2.04-1.128-3.648-2.676-4.824-4.644-1.152-1.968-1.728-4.164-1.728-6.588 0-2.424.576-4.62 1.728-6.588 1.176-1.968 2.784-3.504 4.824-4.608 2.04-1.128 4.332-1.692 6.876-1.692 2.52 0 4.8.564 6.84 1.692 2.04 1.104 3.636 2.64 4.788 4.608 1.152 1.944 1.728 4.14 1.728 6.588 0 2.448-.576 4.656-1.728 6.624-1.152 1.944-2.748 3.48-4.788 4.608-2.04 1.104-4.32 1.656-6.84 1.656zm0-3.204c1.848 0 3.504-.42 4.968-1.26a9.115 9.115 0 0 0 3.492-3.456c.864-1.488 1.296-3.144 1.296-4.968 0-1.824-.432-3.468-1.296-4.932a9.043 9.043 0 0 0-3.492-3.492c-1.464-.84-3.12-1.26-4.968-1.26-1.848 0-3.528.42-5.04 1.26a9.3 9.3 0 0 0-3.528 3.492c-.84 1.464-1.26 3.108-1.26 4.932 0 1.824.42 3.48 1.26 4.968a9.379 9.379 0 0 0 3.528 3.456c1.512.84 3.192 1.26 5.04 1.26zm42.223 2.916-.036-18.36-9.108 15.3H46.77l-9.108-15.192v18.252h-3.456v-25.2h2.952L47.67 47.51l10.368-17.712h2.952l.036 25.2H57.57z" fill="#fff"/><path d="m76.678 19.63-1.413-.432a.51.51 0 0 0-.536.145c-.343.388-.72.756-1.12 1.096-2.964 2.515-6.684 3.373-10.759 2.484-4.054-.884-5.918-3.231-8.497-6.479l-.564-.708a2.702 2.702 0 0 1-.075-.102 2.41 2.41 0 0 0-.286-.347 4.653 4.653 0 0 0-.552-.462 1.822 1.822 0 0 1-.74-1.247l-.434-3.321a.579.579 0 0 0-.205-.37.547.547 0 0 0-.395-.126l-2.14.188a.513.513 0 0 0-.46.59l.417 3.185c.045.35-.068.704-.31.974-.37.412-.558.92-.545 1.47.169 6.948 4.828 12.091 12.463 13.758 3.295.719 6.8.289 9.867-1.211a14.32 14.32 0 0 0 1.75-1.012 12.861 12.861 0 0 0 2.078-1.75c1.104-1.154 1.907-2.447 2.387-3.842.205-.599.362-1.22.465-1.845a.575.575 0 0 0-.396-.636zm-27.045-8.642 1.08-.095.288 2.201-.436.011-.653.016-.279-2.133zm21.898 15.8c-2.97 2.014-7.001 2.908-10.828 2.073-7.09-1.547-11.415-6.284-11.57-12.67-.008-.342.148-.59.28-.737.315-.351.51-.786.567-1.244l1.209-.03a2.968 2.968 0 0 0 1.102 1.528c.148.105.288.222.416.347.053.052.1.118.154.194.035.048.07.099.112.15l.562.706c2.623 3.304 4.696 5.914 9.139 6.883 2.226.486 4.375.485 6.387-.004a12.652 12.652 0 0 0 4.996-2.48l.036.017.192.093a10.303 10.303 0 0 1-2.888 2.961c-2.496 1.694-5.735 2.304-9.08 1.574-5.21-1.137-8.92-3.94-10.45-7.895a.555.555 0 0 0-.694-.336.525.525 0 0 0-.297.694c1.672 4.327 5.672 7.382 11.264 8.602 2.728.595 5.438.378 7.836-.627a11.719 11.719 0 0 0 2.051-1.109 11.29 11.29 0 0 0 3.25-3.379l.147.072c-.755 1.846-2.139 3.427-3.893 4.616zm4.24-5.634-.219-.106-.63-.308c.135-.132.267-.267.395-.404l.61.187a10.44 10.44 0 0 1-.156.631z" fill="#fff"/></svg><svg viewBox="0 0 80 64" id="logo" xmlns="http://www.w3.org/2000/svg"><path d="M15.347 55.286c-2.544 0-4.836-.552-6.876-1.656-2.04-1.128-3.648-2.676-4.824-4.644-1.152-1.968-1.728-4.164-1.728-6.588 0-2.424.576-4.62 1.728-6.588 1.176-1.968 2.784-3.504 4.824-4.608 2.04-1.128 4.332-1.692 6.876-1.692 2.52 0 4.8.564 6.84 1.692 2.04 1.104 3.636 2.64 4.788 4.608 1.152 1.944 1.728 4.14 1.728 6.588 0 2.448-.576 4.656-1.728 6.624-1.152 1.944-2.748 3.48-4.788 4.608-2.04 1.104-4.32 1.656-6.84 1.656zm0-3.204c1.848 0 3.504-.42 4.968-1.26a9.115 9.115 0 0 0 3.492-3.456c.864-1.488 1.296-3.144 1.296-4.968 0-1.824-.432-3.468-1.296-4.932a9.043 9.043 0 0 0-3.492-3.492c-1.464-.84-3.12-1.26-4.968-1.26-1.848 0-3.528.42-5.04 1.26a9.3 9.3 0 0 0-3.528 3.492c-.84 1.464-1.26 3.108-1.26 4.932 0 1.824.42 3.48 1.26 4.968a9.379 9.379 0 0 0 3.528 3.456c1.512.84 3.192 1.26 5.04 1.26zm42.223 2.916-.036-18.36-9.108 15.3H46.77l-9.108-15.192v18.252h-3.456v-25.2h2.952L47.67 47.51l10.368-17.712h2.952l.036 25.2H57.57z"/><path d="m76.678 19.63-1.413-.432a.51.51 0 0 0-.536.145c-.343.388-.72.756-1.12 1.096-2.964 2.515-6.684 3.373-10.759 2.484-4.054-.884-5.918-3.231-8.497-6.479l-.564-.708a2.702 2.702 0 0 1-.075-.102 2.41 2.41 0 0 0-.286-.347 4.653 4.653 0 0 0-.552-.462 1.822 1.822 0 0 1-.74-1.247l-.434-3.321a.579.579 0 0 0-.205-.37.547.547 0 0 0-.395-.126l-2.14.188a.513.513 0 0 0-.46.59l.417 3.185c.045.35-.068.704-.31.974-.37.412-.558.92-.545 1.47.169 6.948 4.828 12.091 12.463 13.758 3.295.719 6.8.289 9.867-1.211a14.32 14.32 0 0 0 1.75-1.012 12.861 12.861 0 0 0 2.078-1.75c1.104-1.154 1.907-2.447 2.387-3.842.205-.599.362-1.22.465-1.845a.575.575 0 0 0-.396-.636zm-27.045-8.642 1.08-.095.288 2.201-.436.011-.653.016-.279-2.133zm21.898 15.8c-2.97 2.014-7.001 2.908-10.828 2.073-7.09-1.547-11.415-6.284-11.57-12.67-.008-.342.148-.59.28-.737.315-.351.51-.786.567-1.244l1.209-.03a2.968 2.968 0 0 0 1.102 1.528c.148.105.288.222.416.347.053.052.1.118.154.194.035.048.07.099.112.15l.562.706c2.623 3.304 4.696 5.914 9.139 6.883 2.226.486 4.375.485 6.387-.004a12.652 12.652 0 0 0 4.996-2.48l.036.017.192.093a10.303 10.303 0 0 1-2.888 2.961c-2.496 1.694-5.735 2.304-9.08 1.574-5.21-1.137-8.92-3.94-10.45-7.895a.555.555 0 0 0-.694-.336.525.525 0 0 0-.297.694c1.672 4.327 5.672 7.382 11.264 8.602 2.728.595 5.438.378 7.836-.627a11.719 11.719 0 0 0 2.051-1.109 11.29 11.29 0 0 0 3.25-3.379l.147.072c-.755 1.846-2.139 3.427-3.893 4.616zm4.24-5.634-.219-.106-.63-.308c.135-.132.267-.267.395-.404l.61.187a10.44 10.44 0 0 1-.156.631z"/></svg><svg fill="none" viewBox="0 0 26 43" id="mouse" xmlns="http://www.w3.org/2000/svg"><g clip-path="url(#fa)"><path fill-rule="evenodd" clip-rule="evenodd" d="M13 14a3 3 0 1 0 0-6 3 3 0 0 0 0 6z" fill="#fff"/><rect x="1" y="1" width="24" height="41" rx="12" stroke="#fff" stroke-width="2"/></g><defs><clipPath id="fa"><path fill="#fff" d="M0 0h26v43H0z"/></clipPath></defs></svg><svg fill="none" viewBox="0 0 55 65" id="play" xmlns="http://www.w3.org/2000/svg"><path fill-rule="evenodd" clip-rule="evenodd" d="m3.048 5.313 45.779 26.703L3.048 58.72V5.313zM0 .003v64.024l54.877-32.013L0 0v.003z" fill="#fff"/></svg></svg>